<?xml version="1.0" encoding="UTF-8"?>
<svg id="Layer_1" data-name="Layer 1" xmlns="http://www.w3.org/2000/svg" viewBox="0 0 226.98 51.33">
  <defs>
    <style>
      .cls-1 {
        fill: #231f20;
      }
    </style>
  </defs>
  <path class="cls-1" d="M25.66,43.66c3.05,0,5.89-.71,8.54-2.14v8.33c-2.77,.98-5.61,1.48-8.54,1.48-7.08,0-13.13-2.51-18.14-7.52C2.51,38.79,0,32.74,0,25.66S2.51,12.54,7.52,7.52,18.59,0,25.66,0c2.93,0,5.78,.48,8.54,1.44V9.81c-2.65-1.45-5.5-2.18-8.54-2.18-4.97,0-9.21,1.77-12.73,5.31-3.52,3.52-5.27,7.76-5.27,12.73s1.76,9.21,5.27,12.73,7.76,5.27,12.73,5.27Z"/>
  <path class="cls-1" d="M77.59,.53V50.84h-7.66v-11.74h-17.09l-7.42,11.74h-9.04L68.2,.53h9.39Zm-19.93,30.94h12.27V12.09l-12.27,19.37Z"/>
  <path class="cls-1" d="M122.8,.53V50.84h-7.98L93.3,14.87V50.84h-7.63V.53h7.98l21.48,35.96V.53h7.66Z"/>
  <path class="cls-1" d="M138.2,.53V38.67L160.66,.53h8.86l-29.64,50.31h-9.35V.53h7.66Z"/>
  <path class="cls-1" d="M187.17,.53V50.84h-7.66v-11.74h-17.09l-7.42,11.74h-9.04L177.79,.53h9.39Zm-19.93,30.94h12.27V12.09l-12.27,19.37Z"/>
  <path class="cls-1" d="M209.14,51.29c-3.33-.14-6.4-1.03-9.21-2.67-3.19-1.85-5.36-4.34-6.5-7.45l7.17-2.64c.59,1.55,1.79,2.8,3.62,3.76,1.62,.82,3.38,1.28,5.27,1.37,2.93,.12,5.36-.6,7.28-2.14,1.62-1.31,2.47-2.81,2.57-4.5,.14-3.21-3.22-5.78-10.09-7.7-10.76-3.02-15.97-8.14-15.64-15.36,.21-5.06,2.38-8.85,6.5-11.36,3.14-1.92,6.91-2.78,11.32-2.57,5.34,.23,9.63,2.1,12.87,5.59l-5.59,5.2c-1.83-1.97-4.37-3.02-7.63-3.16-2.3-.09-4.25,.2-5.87,.88-2.53,1.08-3.86,3-3.97,5.77-.14,3.16,3.22,5.71,10.09,7.63,6.19,1.73,10.57,4.29,13.15,7.66,1.78,2.34,2.61,4.93,2.5,7.77-.19,3.98-1.99,7.36-5.41,10.12-3.19,2.55-7.01,3.83-11.46,3.83-.33,0-.64-.01-.95-.04Z"/>
</svg>