<?xml version="1.0" encoding="UTF-8"?>
<svg id="Layer_1" data-name="Layer 1" xmlns="http://www.w3.org/2000/svg" viewBox="0 0 118.55 51.33">
  <defs>
    <style>
      .cls-1 {
        fill: #231f20;
      }
    </style>
  </defs>
  <path class="cls-1" d="M7.63,.53V43.21H25.66v7.63H0V.53H7.63Z"/>
  <path class="cls-1" d="M32.94,43.8c-5.02-5.02-7.52-11.06-7.52-18.14s2.51-13.12,7.52-18.14C37.96,2.51,44,0,51.08,0s13.13,2.51,18.14,7.52,7.52,11.06,7.52,18.14-2.51,13.12-7.52,18.14-11.06,7.52-18.14,7.52-13.13-2.51-18.14-7.52Zm5.41-30.87c-3.52,3.52-5.27,7.76-5.27,12.73s1.76,9.21,5.27,12.73,7.76,5.27,12.73,5.27,9.21-1.76,12.73-5.27,5.27-7.76,5.27-12.73-1.76-9.21-5.27-12.73-7.76-5.27-12.73-5.27-9.21,1.76-12.73,5.27Z"/>
  <path class="cls-1" d="M88.03,43.8c-5.02-5.02-7.52-11.06-7.52-18.14s2.51-13.12,7.52-18.14S99.09,0,106.17,0c3.49,0,6.82,.67,9.98,2l-2.95,7.07c-2.25-.96-4.59-1.44-7.03-1.44-4.97,0-9.21,1.77-12.73,5.31-3.52,3.52-5.27,7.76-5.27,12.73s1.76,9.21,5.27,12.73,7.76,5.27,12.73,5.27c1.62,0,3.19-.2,4.71-.6v-13.71h-8.16v-7.66h15.82v26.61l-2.32,.98c-3.21,1.36-6.56,2.04-10.05,2.04-7.08,0-13.12-2.51-18.14-7.52Z"/>
</svg>