<?xml version="1.0" encoding="UTF-8"?>
<svg id="Layer_1" data-name="Layer 1" xmlns="http://www.w3.org/2000/svg" viewBox="0 0 281.29 51.33">
  <defs>
    <style>
      .cls-1 {
        fill: #231f20;
      }
    </style>
  </defs>
  <path class="cls-1" d="M39.02,.53l-15.68,26.65v23.66h-7.66V27.18L0,.53H8.86l10.65,18.07L30.16,.53h8.86Z"/>
  <path class="cls-1" d="M42.89,43.8c-5.02-5.02-7.52-11.06-7.52-18.14s2.51-13.12,7.52-18.14C47.91,2.51,53.95,0,61.03,0s13.12,2.51,18.14,7.52c5.02,5.02,7.52,11.06,7.52,18.14s-2.51,13.12-7.52,18.14c-5.02,5.02-11.06,7.52-18.14,7.52s-13.13-2.51-18.14-7.52Zm5.41-30.87c-3.52,3.52-5.27,7.76-5.27,12.73s1.76,9.21,5.27,12.73,7.76,5.27,12.73,5.27,9.21-1.76,12.73-5.27,5.27-7.76,5.27-12.73-1.76-9.21-5.27-12.73-7.76-5.27-12.73-5.27-9.21,1.76-12.73,5.27Z"/>
  <path class="cls-1" d="M98.23,46.05c-3.49-3.49-5.24-7.71-5.24-12.66V.49h7.66V33.4c0,2.84,1,5.25,2.99,7.24s4.43,3.02,7.24,3.02,5.25-1.01,7.24-3.02c2.02-1.99,3.02-4.41,3.02-7.24V.49h7.66V33.4c0,4.95-1.76,9.16-5.27,12.66-3.49,3.49-7.71,5.24-12.66,5.24s-9.14-1.75-12.66-5.24Z"/>
  <path class="cls-1" d="M164.64,.53v7.63h-10.65V50.84h-7.66V8.16h-10.65V.53h28.97Z"/>
  <path class="cls-1" d="M177.12,46.05c-3.49-3.49-5.24-7.71-5.24-12.66V.49h7.66V33.4c0,2.84,1,5.25,2.99,7.24s4.43,3.02,7.24,3.02,5.25-1.01,7.24-3.02c2.02-1.99,3.02-4.41,3.02-7.24V.49h7.66V33.4c0,4.95-1.76,9.16-5.27,12.66-3.49,3.49-7.71,5.24-12.66,5.24s-9.14-1.75-12.66-5.24Z"/>
  <path class="cls-1" d="M216.42,50.84V.53h15.79c3.98,0,7.38,1.41,10.2,4.22,2.81,2.84,4.22,6.23,4.22,10.2,0,3.54-1.14,6.64-3.41,9.32,1.95,1.34,3.47,3.05,4.57,5.13,1.17,2.13,1.76,4.42,1.76,6.86,0,4.03-1.43,7.46-4.29,10.3-2.84,2.86-6.26,4.29-10.27,4.29h-18.56Zm7.63-29.11h8.16c1.88,0,3.47-.67,4.78-2,1.34-1.31,2-2.91,2-4.78s-.67-3.47-2-4.78c-1.31-1.34-2.91-2-4.78-2h-8.16v13.57Zm0,21.48h10.93c1.9,0,3.53-.68,4.89-2.04,1.34-1.36,2-3,2-4.92s-.67-3.52-2-4.85-2.99-2.04-4.89-2.04h-10.93v13.85Z"/>
  <path class="cls-1" d="M281.29,.53v7.63h-18.04v13.64h13.92v7.63h-13.92v13.78h18.04v7.63h-25.66V.53h25.66Z"/>
</svg>